<?xml version="1.0" encoding="iso-8859-1"?>
<!-- Uploaded to: SVG Repo, www.svgrepo.com, Generator: SVG Repo Mixer Tools -->
<svg height="800px" width="800px" version="1.1" id="Layer_1" xmlns="http://www.w3.org/2000/svg" xmlns:xlink="http://www.w3.org/1999/xlink" 
	 viewBox="0 0 232.876 232.876" xml:space="preserve">
<g>
	<path style="fill:#662D91;" d="M228.418,136.005c12.284,15.859-3.071,32.543-18.792,39.739c-8.479,7.471-23.972,11-32.863,13.842
		c-21.909,7.059-45.101,9.809-67.973,6.967c-17.05-2.108-34.422-8.296-50.326-17.417c-10.359-4.95-20.213-11.092-28.784-18.242
		C15.837,150.81,0.712,137.243,0.024,120.88c-0.688-16.409,13.384-26.951,28.555-20.305c8.754,3.804,15.721,12.238,22.642,18.563
		c14.3,13.063,28.509,22.459,45.56,31.351c0.917,0.367,1.742,0.779,2.659,1.1c24.338,8.388,46.11,5.821,68.202-1.375
		C184.05,141.231,211.368,114.051,228.418,136.005z"/>
	<path style="fill:#662D91;" d="M164.662,50.249c16.363,0.138,31.442,15.813,29.197,32.589c-1.467,11.138-14.3,20.58-26.08,20.809
		c-12.1,5.775-27.134-10.725-29.563-22.276C134.778,65.008,148.345,50.066,164.662,50.249z"/>
	<path style="fill:#662D91;" d="M100.585,45.207c6.921,9.35,6.463,23.742,0.321,33.368C94.581,88.613,81.885,93.242,70.93,87.88
		C59.517,82.242,53.925,68.629,55.3,56.392c1.054-9.625,7.104-16.913,15.675-18.976c0.092,0,0.137-0.046,0.229-0.092
		C81.472,32.557,93.894,36.178,100.585,45.207z"/>
</g>
</svg>